<svg id="Calque_1" data-name="Calque 1" xmlns="http://www.w3.org/2000/svg" viewBox="0 0 253 105.84"><defs><style>.cls-1,.cls-2{fill:#fff;}.cls-2{font-size:60px;font-family:Silom, Silom;}</style></defs><title>deack</title><line y1="53.21" x2="253" y2="53.21"/><path class="cls-1" d="M61,162.29c21.08-1.24,42.17-1.89,63.25-2.33,10.54-.28,21.08-.34,31.63-.5l31.63-.17,31.63.16c10.54.17,21.08.22,31.63.5,21.08.44,42.17,1.09,63.25,2.34-21.08,1.25-42.17,1.9-63.25,2.34-10.54.28-21.08.33-31.62.5l-31.62.16-31.62-.17c-10.54-.16-21.08-.22-31.62-.5C103.17,164.18,82.08,163.54,61,162.29Z" transform="translate(-61 -109.08)"/><text class="cls-2" transform="translate(54.98 76.08)">DECK</text></svg>