<svg version="1" xmlns="http://www.w3.org/2000/svg" width="1789.333" height="1789.333" viewBox="0 0 1342.000000 1342.000000"><path d="M668 204c0 .5 1 .9 2.3.9h64.5c54.6.1 62.2.3 62.2 1.6 0 .8-.1 1.5-.2 1.5-.2 0-2.1.7-4.3 1.5-3.9 1.4-3.5 1.5 9 1.4 7.2-.1 13.5-.5 14.1-1 .8-.6 1.4-.4 1.8.6.7 1.8 3.2 2 3.9.2.4-1 .6-1 .6 0 .1.7.6 1.3 1.2 1.3.5 0 .7-.6.3-1.3-.5-.8-.2-.8.9.2 1.1.8 2.2 1 3 .4.6-.5 9.6-.8 20-.8 11.5.1 18.7-.3 18.7-.9 0-.5-.3-.6-.7-.3-.3.4-1.2.2-2-.4-.9-.8-1.7-.8-2.6-.1-1.4 1.2-4.6-.2-3.4-1.5.5-.4 1.2-.1 1.7.7.6.8 1 1 1 .5 0-.6-.5-1.6-1.2-2.3-.9-.9 5.9-1.2 30.8-1.2l31.9.1-4 2.1c-4.8 2.6-8.5 3.1-12.1 1.7-2-.7-2.9-.7-3.4.2-.6.8-.9.7-1.3-.2-.4-1.2-.7-1.1-1.6.1-.7 1-1.1 1.1-1.1.2 0-.6-1.1-1.2-2.5-1.2s-2.5.4-2.5 1c0 .5-.5 1-1.1 1-.5 0-.7-.5-.4-1 .3-.6.1-1-.4-1-.6 0-1.1.6-1.1 1.2 0 .9-.3 1-.8.2-.4-.7-3.9-1-9.2-.8-4.7.2-9.5.3-10.7.4-3.7.1-2.6 1.6 1.3 1.8 2.3.2 3.3-.1 2.9-.8-.3-.5-.1-1 .4-1 .6 0 1.1.4 1.1 1 0 .5.7 1 1.6 1 .8 0 1.2-.5.9-1-.3-.6-.1-1 .4-1 .6 0 1.1.4 1.1 1 0 .5.7 1 1.6 1 .8 0 1.2-.5.9-1-.3-.6-.1-1 .4-1 .6 0 1.1.3 1.1.8 0 1.2 10.4 1.1 11.2-.2.5-.7.8-.6.8.4 0 1.3.1 1.3 1 0 .5-.8 1-1 1-.4 0 .8 3.5 1.2 11.4 1.1 10.4-.1 11.3-.2 10.8-1.9-.2-1 .1-1.8.7-1.8.7 0 .9.4.6 1-.3.5-.2 1 .2 1 .5 0 1.4-.9 2.1-2 1.4-2.3 5-2.7 5.8-.6.3.8-.1 2.7-.9 4.1-1.2 2.3-1.2 3.3 0 6.7 1.1 3.3 1.3 54.1 1.1 306.8-.3 282.6-.4 303-2 304.2-.9.7-2.1 3.8-2.7 6.8-.5 3-1.4 6.6-1.9 8-.9 2.4-.9 2.4-1.6.4-1.3-4.1-1.5-11.9-.3-13.3.9-1.2.9-1.3 0-.7-.7.4-1.3.3-1.3-.1 0-.5.6-1.5 1.3-2.2.7-.8.7-1.1.1-.8-.7.4-1.1-.3-1.1-1.8 0-1.4.4-2.2.9-1.9.5.3.4-.4-.4-1.5-1.1-1.8-1.1-2.3.1-3 1.1-.7 1.1-.9 0-1.3-1.2-.5-1.2-.9-.1-2.8.8-1.2.9-1.9.3-1.5-1.5.9-1.4-.8.2-2.4 1-1.1 1-1.3 0-.7-.7.4-1.3.3-1.3-.1 0-.5.6-1.5 1.3-2.2 1-1.1 1-1.3 0-.7-1.6.9-1.7-.6-.2-2.1.8-.8.8-1.3 0-1.7-1.5-1-1.4-2.9.2-2 1 .6 1 .4 0-.7-.7-.7-1.3-1.7-1.3-2.2 0-.4.6-.5 1.3-.1 1 .6 1 .4 0-.7-1.5-1.5-1.8-3.3-.5-2.5.5.3.9-.1.9-.9s-.4-1.2-.9-.9c-1.3.8-1-1 .5-2.5 1-1.1 1-1.3 0-.7-1.7.9-1.7-.6 0-2.3.6-.8.7-1.1.1-.8-.7.4-1.1-.5-1.1-2.3 0-1.8.4-2.7 1.1-2.3.6.3.5 0-.1-.8-1.5-1.5-1.8-3.3-.5-2.5.5.3.9-.1.9-.9s-.4-1.2-.9-.9c-1.3.8-1-1 .5-2.5 1-1.1 1-1.3 0-.7-.7.4-1.3.3-1.3-.1 0-.5.6-1.5 1.3-2.2.6-.8.7-1.1.1-.8-.7.4-1.1-.5-1.1-2.3 0-1.8.4-2.7 1.1-2.3.6.3.5 0-.1-.8-1.5-1.5-1.8-3.3-.5-2.5.5.3.9-.1.9-.9s-.4-1.2-.9-.9c-1.3.8-1-1 .5-2.5 1-1.1 1-1.3 0-.7-.7.4-1.3.3-1.3-.1 0-.5.6-1.5 1.3-2.2.6-.8.7-1.1.1-.8-.7.4-1.1-.5-1.1-2.3 0-1.8.4-2.7 1.1-2.3.6.3.5 0-.1-.8-1.5-1.5-1.8-3.3-.5-2.5.5.3.9-.1.9-.9s-.4-1.2-.9-.9c-1.3.8-1-1 .5-2.5 1-1.1 1-1.3 0-.7-.7.4-1.3.3-1.3-.1 0-.5.6-1.5 1.3-2.2 1-1.1 1-1.3 0-.7-.7.4-1.3.3-1.3-.1 0-.5.6-1.5 1.3-2.2 1-1.1 1-1.3 0-.7-.7.4-1.3.3-1.3-.1 0-.5.6-1.5 1.3-2.2 1-1.1 1-1.3 0-.7-.7.4-1.3.3-1.3-.1 0-.5.6-1.5 1.3-2.2 1-1.1 1-1.3 0-.7-.7.4-1.3.3-1.3-.1 0-.5.6-1.5 1.3-2.2 1-1.1 1-1.3 0-.7-1.6.9-1.7-.6-.2-2.1.8-.8.8-1.3 0-1.7-.6-.4-1.1-1.6-1.1-2.7 0-1.2.4-1.7 1.1-1.4.6.4.5-.3-.3-1.4-1.1-1.8-1.1-2.3.2-3.1 1-.6 1.1-1 .3-1-.7 0-1.3-.9-1.3-2s.6-2 1.3-2c.8 0 .7-.4-.3-1-1.2-.8-1.3-1.1-.1-1.9 1.1-.7 1.1-.9 0-1.3-1.2-.4-1.1-.8.1-2.3.9-1.1 1-1.6.3-1.1-1.7.9-1.7-.6 0-2.3 1-1.1 1-1.3 0-.7-.7.4-1.3.3-1.3-.1 0-.5.6-1.5 1.3-2.2 1-1.1 1-1.3 0-.7-1.7.9-1.7-.6 0-2.3 1-1.1 1-1.3 0-.7-.8.5-1.3.1-1.3-.9 0-.9.5-1.3 1.1-1 .6.4.5-.3-.3-1.4-1.1-1.8-1.1-2.3.2-3.1 1-.6 1.1-1 .3-1-.7 0-1.3-.5-1.3-1.1 0-.5.6-.7 1.3-.3.9.6.9.4 0-.7-1.5-1.5-1.8-3.3-.5-2.5.5.3.9-.1.9-.9s-.4-1.2-.9-.9c-1.2.8-1-1 .3-2.3.8-.8.8-1.3 0-1.7-1.5-1-1.4-2.9.2-2 1 .6 1 .4 0-.7-.7-.7-1.3-1.7-1.3-2.2 0-.4.6-.5 1.3-.1 1 .6 1 .4 0-.7-1.5-1.5-1.8-3.3-.5-2.5.5.3.9-.1.9-.9s-.4-1.2-.9-.9c-1.3.8-1-1 .5-2.5 1-1.1 1-1.3 0-.7-.7.4-1.3.3-1.3-.1 0-.5.6-1.5 1.3-2.2.6-.8.7-1.1.1-.8-.7.4-1.1-.5-1.1-2.3 0-1.8.4-2.7 1.1-2.3.6.3.5 0-.1-.8-1.5-1.5-1.8-3.3-.5-2.5.5.3.9-.1.9-.9s-.4-1.2-.9-.9c-1.3.8-1-1 .5-2.5 1-1.1 1-1.3 0-.7-.7.4-1.3.3-1.3-.1 0-.5.6-1.5 1.3-2.2.6-.8.7-1.1.1-.8-.7.4-1.1-.5-1.1-2.3 0-1.8.4-2.7 1.1-2.3.6.3.5 0-.1-.8-1.5-1.5-1.8-3.3-.5-2.5.5.3.9-.1.9-.9s-.4-1.2-.9-.9c-1.3.8-1-1 .5-2.5 1-1.1 1-1.3 0-.7-.7.4-1.3.3-1.3-.1 0-.5.6-1.5 1.3-2.2.6-.8.7-1.1.1-.8-.7.4-1.1-.5-1.1-2.3 0-1.8.4-2.7 1.1-2.3.6.3.5 0-.1-.8-1.5-1.5-1.8-3.3-.5-2.5.5.3.9-.1.9-.9s-.4-1.2-.9-.9c-1.3.8-1-1 .5-2.5 1-1.1 1-1.3 0-.7-1.7.9-1.7-.6 0-2.3.9-1.1.9-1.3 0-.7-1.7.9-1.7-.6 0-2.3.9-1.1.9-1.3 0-.7-1.7.9-1.7-.6 0-2.3.9-1.1.9-1.3 0-.7-1.7.9-1.7-.6 0-2.3.9-1.1.9-1.3 0-.7-1.7.9-1.7-.6 0-2.3.9-1.1.9-1.3 0-.7-1.6.9-1.7-.6-.2-2.1.8-.8.8-1.3 0-1.7-.6-.4-1.1-1.6-1.1-2.7 0-1.2.4-1.7 1.1-1.4.6.4.5-.3-.3-1.4-1.1-1.8-1.1-2.3.2-3.1 1-.6 1.1-1 .3-1-.7 0-1.3-.9-1.3-2s.6-2 1.3-2c.8 0 .7-.4-.3-1-1.2-.8-1.3-1.1-.1-1.9 1.1-.7 1.1-.9 0-1.3-1.2-.4-1.1-.8.1-2.3.9-1.1 1-1.6.3-1.1-.7.4-1.3.3-1.3-.1 0-.5.6-1.5 1.3-2.2.9-1.1.9-1.3 0-.7-.7.4-1.3.3-1.3-.1 0-.5.6-1.5 1.3-2.2 1-1.1 1-1.3 0-.7-.7.4-1.3.3-1.3-.1 0-.5.6-1.5 1.3-2.2 1-1.1 1-1.3 0-.7-.8.5-1.3.1-1.3-.9 0-.9.5-1.3 1.1-1 .6.4.5-.3-.3-1.4-1.1-1.8-1.1-2.3.2-3.1 1-.6 1.1-1 .3-1-.7 0-1.3-.5-1.3-1.1 0-.5.6-.7 1.3-.3 1 .6 1 .4 0-.7-1.5-1.5-1.8-3.3-.5-2.5.5.3.9-.1.9-.9s-.4-1.2-.9-.9c-1.2.8-1-1 .3-2.3.8-.8.8-1.3 0-1.7-1.5-1-1.4-2.9.2-2 1 .6 1 .4 0-.7-.7-.7-1.3-1.7-1.3-2.2 0-.4.6-.5 1.3-.1 1 .6 1 .4 0-.7-1.5-1.5-1.8-3.3-.5-2.5.5.3.9-.1.9-.9s-.4-1.2-.9-.9c-1.3.8-1-1 .5-2.5.9-1.1.9-1.3 0-.7-.7.4-1.3.3-1.3-.1 0-.5.6-1.5 1.3-2.2.6-.8.7-1.1.1-.8-.7.4-1.1-.5-1.1-2.3 0-1.8.4-2.7 1.1-2.3.6.3.5 0-.1-.8-1.5-1.5-1.8-3.3-.5-2.5.5.3.9-.1.9-.9s-.4-1.2-.9-.9c-1.3.8-1-1 .5-2.5 1-1.1 1-1.3 0-.7-.7.4-1.3.3-1.3-.1 0-.5.6-1.5 1.3-2.2.6-.8.7-1.1.1-.8-.7.4-1.1-.5-1.1-2.3 0-1.8.4-2.7 1.1-2.3.6.3.5 0-.1-.8-1.5-1.5-1.8-3.3-.5-2.5.5.3.9-.1.9-.9s-.4-1.2-.9-.9c-1.3.8-1-1 .5-2.5 1-1.1 1-1.3 0-.7-.7.4-1.3.3-1.3-.1 0-.5.6-1.5 1.3-2.2.6-.8.7-1.1.1-.8-.7.4-1.1-.5-1.1-2.3 0-1.8.4-2.7 1.1-2.3.6.3.5 0-.1-.8-1.5-1.5-1.8-3.3-.5-2.5.5.3.9-.1.9-.9s-.4-1.2-.9-.9c-1.3.8-1-1 .5-2.5 1-1.1 1-1.3 0-.7-.7.4-1.3.3-1.3-.1 0-.5.6-1.5 1.3-2.2 1-1.1 1-1.3 0-.7-.7.4-1.3.3-1.3-.1 0-.5.6-1.5 1.3-2.2 1-1.1 1-1.3 0-.7-.7.4-1.3.3-1.3-.1 0-.5.6-1.5 1.3-2.2 1-1.1 1-1.3 0-.7-.7.4-1.3.3-1.3-.1 0-.5.6-1.5 1.3-2.2.7-.8.7-1.1.1-.8-.7.4-1.1-.3-1.1-1.8 0-1.6.4-2.2 1.1-1.8.6.4.5-.1-.3-1-1.1-1.4-1.1-1.7 0-1.7.9 0 1-.3.3-.8-1.5-1-1.4-245.2.1-245.2.5 0 .4-.4-.3-.9-.8-.4-1.3-1.1-1.3-1.5.5-3.8 5.6-3.6-117.7-3.6-64.8 0-118.1.2-118.4.5-.6.7 2.5 15.9 4.7 22.9.8 2.7 1.5 5.9 1.5 7 0 1.2.7 3.4 1.6 5.1.8 1.6 1.7 4.1 1.9 5.5.4 2.7 2.3 8.5 3.6 11.2.5 1 .9 3.5.9 5.6 0 2.2.7 5.2 1.5 6.9.8 1.6 2.9 9.2 4.6 16.9 1.7 7.6 3.8 15.1 4.5 16.6.8 1.5 1.4 3.6 1.4 4.8 0 2 .2 2 53.3 2 52.1 0 53.4 0 55.2 2 1 1.1 2.4 2 3 2 .7 0 1.8.6 2.4 1.3 1.7 2.1 2 612.4.3 615.4-.7 1.3-2.7 3.1-4.5 4-2.9 1.6-7 1.8-45.2 1.8s-42.4-.2-46.7-1.8c-5.4-2.1-7.6-5-10.7-14.4-2.1-6.1-2.1-7.7-2.1-94.3v-88l-5.2 3.2c-2.9 1.7-5.8 3.7-6.3 4.3-1.3 1.6-10.3 8.5-11.1 8.5-.3 0-3.5 2.5-7.2 5.6-3.7 3.1-10.3 8.1-14.7 11.1-4.4 3-10.2 7.2-13 9.4-2.7 2.1-6.5 4.4-8.4 5-1.8.6-4.8 2.8-6.7 4.9-1.9 2.1-6.3 5.9-9.8 8.5-3.6 2.6-6.9 5.9-7.5 7.3-.8 1.9-1 31.4-.8 97.7l.2 95 4.5 7.4c5.2 8.4 18.4 21.3 26.4 25.7 5.1 2.8 5.3 2.8 30.6 3.7 14 .4 33.5.6 43.3.4 9.7-.2 17.7-.1 17.7.3 0 .8-2.3 2.9-5 4.5-.9.5-2.9 1.8-4.2 2.8-2.3 1.6-5.7 1.7-37.6 1.8l-35 .1-7.2-2.6c-9.6-3.5-10.1-3.8-19.9-12.1-18.1-15.4-24.7-28.5-19.5-38.7 1.4-2.7 1.4-4.3.4-12.9-.9-7.5-.9-11.4 0-16.7.9-5.5.9-7.9-.1-11.1-.9-2.9-.9-4.8-.2-6.4.7-1.4.7-4.5.2-8.5-.5-3.5-.5-8 0-10.2.5-2.1.5-4.4 0-5.1-1.5-2.3-1-7.5 1.1-12.4 1.7-3.9 1.8-5 .8-6.8-1-1.7-1.2-13.2-.9-48.7.3-48.7.5-50.3 4.9-55.4 1.7-1.9 1.7-1.9-.8-.3-2.5 1.7-7 2.3-7 .9 0-1.5 1.7-2.9 10-8.4 11.1-7.4 22.6-17.2 20.5-17.6-.8-.2-3.9 1.7-6.8 4.1-2.8 2.5-8 6.3-11.4 8.5-3.4 2.1-7.4 5.4-8.8 7.1-1.5 1.7-3.3 3.1-4 3.1-3.9 0-3.9-1-3.6 105.7.3 95.7.4 102.8 2 106.7 1 2.3 2.6 4.8 3.5 5.5 1 .8 3.3 3.8 5.2 6.6 1.9 2.9 5.1 6.8 7 8.6 2 1.9 6.3 6 9.5 9.1 3.1 3.2 7 6 8.6 6.3 3.1.7 10 3.4 17.8 7 8.3 3.8 10.3 4.3 28.5 8.1 1.4.2 6.6 1 11.5 1.5 5 .6 9.7 1.3 10.5 1.6.8.3 10.6.5 21.8.5 14.1 0 20 .3 19.6 1-.4.7-.2.8.4.4.7-.4 27.3-.7 59.2-.8 31.9 0 58-.4 58-.8 0-.7 8.8-1.4 18.7-1.5 2.8 0 5-.2 4.8-.5-.2-.3 2.8-1.2 6.7-1.9 3.8-.7 10.1-2.6 14-4.2 3.9-1.6 7.4-2.6 7.9-2.3.5.3.8 0 .7-.8-.2-.7.5-1.2 1.4-1.2 1 .1 1.6-.1 1.5-.5-.1-.4 1.8-2.4 4.2-4.6 4.5-4.1 12.5-14.2 12.6-16 .1-2.2 1.7-5.5 2.4-5 .5.2.6-.7.3-2-.2-1.5 0-2.5.7-2.5s1-.4.7-.8c-.3-.5-.1-2.4.4-4.3s1.4-7.2 1.9-11.8c.6-4.6 1.5-8.9 2.1-9.6.5-.6.7-1.5.4-1.8-.4-.3-.3-1.4.1-2.4.7-1.7.8-5.6.1-9.9-.2-1 .4-2.8 1.3-3.9 1.2-1.5 1.2-1.7.1-.8-1.3 1-1.5-33.9-1.4-312.7 0-219-.3-313.8-1-313.7-.6.1-1-.3-.9-1 .2-.7-.4-1-1.2-.7-1.2.5-1.5 3.2-1.4 15.5 0 8.2-.2 15.3-.6 15.9-.3.5-1.1.7-1.8.4-2.1-.8-2.4-56.6-.4-58.6.8-.8 1.7-3.4 2-5.8.3-2.5.6-5 .7-5.5.1-.6.2-1.2.1-1.5-.2-.3-.4-2.3-.5-4.5-1.6-21.2-1.7-27.1-.7-37 .6-6.1 1.2-19.1 1.4-29.1.2-20.4-.2-22.3-6.4-25.5-2.4-1.2-3.9-2.7-4.1-4.1-.2-1.3-2-3.4-4.3-4.9-2.3-1.5-4.7-3.9-5.5-5.3l-1.3-2.6H799.3c-85.9 0-131.3.3-131.3 1zm148.3 1.7c.8.8-1.2 3.3-2.6 3.3-.6 0-.2-.7.9-1.6 1.8-1.4 1.8-1.5-.3-.4-1.3.6-2.3 1.5-2.3 2s-2.1.7-4.6.6c-4.1-.2-6.3-1.6-6.4-3.9 0-.9 14.4-1 15.3 0zm39.5 0c-1 .2-1.5 1-1.1 1.9.3.8 0 1.4-.6 1.4s-1.1-.5-1.1-1.1c0-.8-.4-.8-1.5.1-.8.6-1.9.9-2.5.5-.5-.3-1-.3-1 .2 0 .4-4.4.8-9.7.7-5.4-.1-10.3.3-11 .8-.7.6-1.4.4-1.9-.3-.5-.8-.3-.9.6-.4.9.5 1.1.4.6-.4-.4-.6-1.6-.9-2.7-.6-1.2.4-1.9.2-1.9-.7-.1-.7-.7-.2-1.4 1.1-1.2 2.1-1.4 2.1-2 .6-.3-1-.4-2-.1-2.3.3-.3.5.1.5.8 0 .7.3 1 .6.7.4-.4.1-1.3-.6-2.2-1.1-1.3.9-1.5 18.6-1.4 11 .1 19.1.3 18.2.6zM938 565.5c.5 1.3.8 3.6.7 5.2-.1 2 .4 3 2 3.7 1.7.8 2.2 2.1 2.6 6.1.3 2.7 1.2 7.5 2.1 10.5 1.3 4.5 1.7 10.9 1.8 34 .1 34.5-.7 48.5-3.5 56.5-1.1 3.3-2.4 6.3-2.9 6.6-.5.3-.9 1-.9 1.5s-.6 3.1-1.4 5.8c-.8 2.7-1.5 6.3-1.5 7.9 0 1.8-.4 2.7-1.2 2.5-.9-.3-1.4-4-1.6-12.4-.3-10.1 0-13 2-19.4 1.8-5.9 2.2-9.8 2.2-18.5-.1-13.8-1.9-38.6-3.3-44.5-.5-2.5-1.3-5.9-1.6-7.5-.4-1.7-1.1-4-1.7-5.2-1.1-2.3-.5-30.9.7-35 .6-1.9 1.1-2.1 2.7-1.2 1 .6 2.3 2.1 2.8 3.4zm1.6 180.7c4.9 9.6 5.6 15.2 6.1 48.1.5 30 .5 30.9-1.5 33-1.6 1.7-2 3.3-1.7 6.9.1 2.5.6 5.2 1 5.9.5.8.4 1-.3.5-1.6-1-1.6 3.6.1 5.3.6.8.7 1.1.2.8-.7-.4-1.1 3-1 10.1 0 13.7-1.7 17.3-5.8 11.7-1-1.4-1.9-5-2.2-8.7-2.8-34.4-4.4-88.8-2.6-88.8.7 0 1.1-5.6 1.1-16.7v-16.6l2.1 1.9c1.2 1 3.2 4 4.5 6.6zm-.8 130.3c-.3.3-.9-.2-1.2-1.2-.6-1.4-.5-1.5.5-.6.7.7 1 1.5.7 1.8zM923 915c.2 28.3.2 29.8-.6 39.3-.4 5.8-.1 9.2 1 12.7 1.8 5.6 2 9.2.6 10.6-.6.6-.7 4.5-.2 10.7 1 12.1-.4 19.1-5.4 28.7-6.3 12.1-21 24.6-34.8 29.6-6.1 2.2-8.2 2.4-24 2.4-12.8 0-17.7-.3-19.1-1.3-1.5-1.2.8-1.5 16.1-2 25.7-.9 33.7-3.4 44.9-14.4 7.7-7.5 12.1-13.7 15.2-21.4 3-7.4 3.3-13.8 3.3-65.4 0-36.3.7-55.5 2.1-53.3.5.7.9 11.4.9 23.8zm13.3-20.3c-1 .3-1 1-.2 2.6 1 2.1.9 2.1-.5.3-1.6-2-1.3-3.7.7-3.5.9 0 .9.2 0 .6zm.7 7.7c0 .2-.7.9-1.5 1.6-1.3 1.1-1.4 1-.9-.4.5-1.4 2.4-2.3 2.4-1.2zm-1 45.2c-.5 2-.4 6.2.1 9.3.5 3.1.9 7.5.9 9.9 0 2.4.5 5.3 1.1 6.4.7 1.2 1.1 7.8 1.1 16.3 0 13.3-.2 14.6-2.6 19.4-2.3 4.5-4.6 6.6-4.6 4.3-1.4-65.3-1.6-62.1 2.9-67.5 1.9-2.3 2-2.2 1.1 1.9zm-103.5 101.2c-.3.3-1.1 0-1.8-.7-.9-1-.8-1.1.6-.5 1 .3 1.5.9 1.2 1.2z"/><path d="M689.4 208.6c-1.8 1.4-1.8 1.5.4.4 1.2-.6 2.2-1.3 2.2-1.5 0-.8-.5-.6-2.6 1.1zM693 208c0 .5.5 1 1.1 1 .5 0 .7-.5.4-1-.3-.6-.8-1-1.1-1-.2 0-.4.4-.4 1zM714 208c1.8 1.2 3 1.3 3 .2 0-.4-1-.9-2.2-.9-1.8-.2-2 0-.8.7zM719.5 208c.3.4-.3 1.1-1.3 1.6-1.1.5.7 1.1 5.8 1.9 4.2.6 8.3.8 9.2.3 1-.5 13.1-.9 26.9-.9 13.8 0 25-.2 24.7-.4-.2-.2-4.2-.9-8.8-1.4-5.8-.7-15.2-.8-29.4-.1-15.6.7-21.4.7-23-.2-2.6-1.5-4.8-1.9-4.1-.8zM683.5 209.1c-.4.6-.5 1.2-.2 1.5.2.3.7-.2 1-1.1.7-1.7.1-2-.8-.4zM711.7 209.1c.7.7 1.5 1 1.8.7.3-.3-.2-.9-1.2-1.2-1.4-.6-1.5-.5-.6.5zM679.6 210.2c.3.5 1 .6 1.5.3 1.3-.9 1.1-1.2-.6-1.2-.8 0-1.2.4-.9.9zM685.5 210c-.3.5-.1 1 .4 1 .6 0 1.1-.5 1.1-1 0-.6-.2-1-.4-1-.3 0-.8.4-1.1 1zM701.6 209.8c-.3.5.1.9.9.9s1.2-.4.9-.9c-.3-.4-.7-.8-.9-.8-.2 0-.6.4-.9.8zM708 210c-.9.6-1 1-.3 1 .6 0 1.5-.5 1.8-1 .8-1.2.4-1.2-1.5 0zM668.3 215.7c.3 1.5.9 5.4 1.2 8.6.5 4.3 1.1 6 2.7 6.8 1.5.8 1.8 1.7 1.4 3.5-.4 1.4 0 3.3.9 4.7.8 1.3 2.3 5.7 3.3 9.8 1.9 7.3 3.7 11.9 4.8 11.9 1.1 0-.8-8.6-4.3-20-1.9-6.3-4.3-15.1-5.2-19.5-1.3-6.2-2-8.1-3.5-8.3-1.5-.3-1.7.1-1.3 2.5zM684.3 272c.4 3.3 2 10.1 3.7 15.1 1.6 5 3 10 3 11s.9 4.2 2 7.1c1.1 2.9 2 7.3 2 9.9 0 2.5.5 5 1 5.5.6.6 1.9 3.3 2.8 6 1.6 4.3 2.2 5 5.2 5.5 1.9.4 5.1 1.3 7 1.9 1.9.7 4.1 1.5 4.9 1.7 1.1.3 1.1.6 0 2.1-1.2 1.5-1.2 1.6.2.5 1.3-1.1 2.4-.5 7 3.3 3 2.5 7 6.2 8.9 8.3 1.9 2 3.6 3.5 3.7 3.4.1-.1 2.6.9 5.5 2.2 2.9 1.3 7 2.7 9.1 3 2 .4 3.7 1 3.7 1.4 0 .3 3.7.7 8.3.9 4.5.2 8.3.6 8.5 1 .1.4 2.3.5 4.8.3 2.6-.2 4.4.1 4.1.5-.3.5 2.7.9 6.7 1 9.8.1 16.5 1.1 18.3 2.6 2 1.6 5.5 9.7 4.7 10.9-.3.5-.1.9.5.9s1 2.3.9 5.5c-.1 3 .1 5.7.5 6.1.4.4.7 122.4.7 271 0 244.4-.2 270.4-1.6 271.8-1.3 1.4-5.5 1.6-31.7 1.5-20-.1-28.3-.4-24.6-1 3-.4 6.8-1 8.5-1.3 1.6-.2 3.3-.5 3.7-.5.4-.1-.2-1.4-1.4-3.1-1.2-1.6-2.7-2.6-3.2-2.3-.6.3-.7.2-.4-.4.9-1.4-1.4-9.4-2.5-8.6-.7.4-.7 0-.1-1.1 1.1-2 .4-8.6-.9-8.6-.7 0-.7-.5 0-1.3.8-.9.7-2.1-.3-4-.8-1.5-1-2.5-.5-2.2 1.4.9 1.2-1.9-.2-3.4-1-1.1-1-1.3 0-.7.8.5 1.2-.1 1.2-1.9 0-1.7-.4-2.4-1.2-1.9-.7.5-.8.3-.3-.6 1.1-1.8 1.3-6 .3-6.6-.5-.3-.5-1.1-.1-1.7 1.1-1.7 1.1-3 .1-4.4-.5-.6-.5-1.4 0-1.7.9-.6.9-10.7-.1-12.3-.4-.6-.3-1.3 0-1.7 1.2-1.2 1.4-4.8.2-4-.8.5-.8.1 0-1.4.8-1.4.8-2.3.1-2.7-.7-.4-.7-1.2-.2-1.8.9-1.3.6-11.3-.4-13.7-.4-.8-.8-14.1-1-29.5-.1-15.4-.7-31.5-1.3-35.8-.6-4.3-1.1-14.4-1.1-22.3v-14.5l-3.4-2c-1.9-1.1-3.7-2.6-4-3.4-.7-2-3.5-1.9-7.2.4-4.6 2.8-7.4 3.5-7.4 1.8 0-.7-1.1-2.4-2.4-3.6-2.4-2.3-2.4-2.3-3.5-.2-1.6 2.9-1.5 195.1.1 198.6 1.6 3.6 3.1 3.1 2.4-.8-.3-1.7-.1-3.9.4-4.7.8-1.3 1.1-1.2 2.4.5 4.8 6.2 6.8 9.6 6.2 10.2-.4.4-2.4.2-4.6-.4-3.2-.8-4-.7-4 .3 0 .7.5 1.6 1.1 2 .7.4 17 .6 36.3.5 19.3 0 38.6-.1 42.8-.1h7.7l.5-25.8c.2-14.1.4-29.1.3-33.2-.2-12 .9-23.8 2.8-31 .5-1.9.1-3.1-1.4-4.4-2.2-2-2.9-6.6-1.1-6.6 1.8 0 2.3-3 .8-4.8-1.3-1.5-1.4-7.9-.7-50.2.5-26.7.6-51.7.2-55.5-.9-9.2-1-23.5-.1-23.5.4 0 .3-1.1-.2-2.5-.6-1.6-.6-2.5 0-2.5.5 0 .7-.6.5-1.3-.9-2.2-1.3-7.7-.6-7.7.4 0 .7-.9.7-1.9 0-1.1-.4-1.7-.8-1.5-.5.3-.8-1.7-.7-4.5.2-3.3.6-4.8 1.3-4.4.8.5.8.2 0-.8-1.5-1.9-1.6-24.2-.2-23.2.7.4.8.1.2-.8-1.2-1.9-1.7-24.2-.5-23.4.5.3 1.3.1 1.6-.5.4-.6.1-.9-.7-.8-.8.2-1.4-.8-1.6-2.6-.3-2.1 0-2.6 1-2 1 .6 1.1.5.2-.7-.6-.8-1.2-5.2-1.3-9.7-.2-6.7 0-8.2 1.1-7.6 1 .6 1 .4.2-.7-1.6-2.1-1.2-13.5.4-13.1.8.1 1.1-.2.7-.8-.3-.6-1.1-.8-1.6-.4-.6.3-.9-1.5-.8-4.5.2-3.3.6-4.8 1.3-4.4.7.5.7.2 0-.8-1.8-2.1-1.3-29.5.4-29.1.8.1 1.1-.2.7-.8-.3-.6-1-.8-1.4-.6-.4.3-.8-5.5-.9-12.9 0-7.4.3-13.5.7-13.5.3 0 1.2-1 2-2.2 1.7-2.8 1.6-44-.2-46.9-.9-1.4-.8-2.6.1-5.2.9-2.5 1.2-19.8 1.2-67.9 0-35.6-.3-65.3-.6-66.2-.3-.9-1.6-1.6-2.8-1.6-2.6 0-5.3-1.6-4.4-2.6.4-.4.3-1.4-.1-2.3-.8-1.4-6.2-1.6-52-1.9-50.6-.4-51.1-.4-53.7 1.7-2.9 2.3-5.4 1.5-5.4-1.8 0-.9-.7-3.5-1.5-5.9-.9-2.4-1.3-4.7-1-5.2.3-.5-.1-2-.9-3.2-1.4-2.1-4.3-12.5-8.3-28.8-.8-3.6-1.9-7.3-2.4-8.2-.5-1-.9-2.9-.9-4.3s-.5-2.5-1.1-2.5c-.8 0-1 1.8-.6 6z"/><path d="M817.5 565.1c-.4.6-.5 1.2-.2 1.5.2.3.7-.2 1-1.1.7-1.7.1-2-.8-.4zM817 583.9c0 .6.4 1.2.8 1.5.5.3.9-.1.9-.9s-.4-1.5-.9-1.5c-.4 0-.8.4-.8.9zM665 612.2c-.3.3-4.3.8-9 1.1-4.7.4-9.8.9-11.5 1.2-1.6.2-4.3.7-6 .9-18.6 2.9-40.3 7.8-47.6 10.9-2.8 1.2-3.1 1.6-1.6 2.2 1 .4 5.1-.3 10-1.9 15.3-4.8 41.1-9.3 43.3-7.5.6.5 1.3.8 1.5.6.2-.1-.2.3-.9.9-.7.7-2.2 1-3.2.7-1.1-.3-2-.1-2 .3 0 .5-1.5 1-3.2 1-5 .3-10.3 1-11.4 1.6-.5.3-1.7.4-2.6.3-1-.2-1.8.1-1.8.6s1 .7 2.3.5c1.2-.3 2.2-.5 2.2-.6 0-.1 1.6-.2 3.5-.4s4.4-.6 5.6-1c1.8-.5 2.1-.3 2 2.1-.1 2.5-.6 2.9-4.1 3.5-11 1.9-15.2 2.9-20.6 4.8-3.2 1.1-6.7 2-7.7 2-3.3 0-27.8 8.8-41.6 14.9-18.2 8.1-40.9 20.5-46.1 25.3-2.2 2-17.7 14.8-29.6 24.3-4.1 3.3-8.3 7-9.4 8.4-1.1 1.3-7.5 8.1-14.3 15-6.7 6.9-12.5 13.5-12.8 14.6-.4 1-3 5.1-5.9 9-2.9 3.8-6.7 9.7-8.5 13-5.2 9.5-18.9 31.1-20.6 32.6-1.3 1.1-1.4.9-.8-1.7 1-4.5 6.9-16.8 10.4-21.9 4.2-6.1 8-14.9 8-18.6 0-4.5 2.3-9.1 6.4-12.7 2-1.7 4-3.2 4.5-3.2s.6-1.1.4-2.4c-.4-1.8.4-3.3 3.4-6 3.6-3.4 9.3-5.1 7.7-2.4-.5 1-.4 1 .6.1.8-.7 1.5-2.3 1.7-3.5.2-1.8.1-1.9-.6-.8-.5.8-.7 1.9-.4 2.5.4.5.2.6-.3.2-1.5-1.4-1.1-3 2-7.7 3.2-4.7 22.8-24.3 26.3-26.3 1.2-.7 6.5-4.9 11.9-9.4 13.7-11.6 25.5-19.3 43.1-27.9 8.4-4.1 15.5-7.9 15.8-8.4.3-.5 3.5-1.8 7-2.9 3.6-1.1 7.5-2.7 8.7-3.4 1.3-.8 4.8-2.3 7.8-3.2 5.2-1.7 9.5-4.3 8.6-5.2-.6-.6-13 2.9-13.6 3.8-.3.5-4.6 2.4-9.5 4.4-12.2 4.9-32 14.9-43.3 21.9-20.1 12.5-45 33-59.3 48.7-4.6 5.1-11.4 12.4-15.1 16.3-9.6 10.1-33 46.8-39.4 61.9-2 4.5-4.8 10.9-6.4 14.2-4.3 9.1-13.6 38.5-17.1 54-4.6 20.7-6.1 35.8-6.5 65-.3 21.7-.1 29.3 1 34 .8 3.3 1.8 9.9 2.1 14.7.5 6 1.4 10.1 3.1 13.5l2.4 4.8-.6-6.6c-.4-4.2-.2-7.4.5-8.8 1-1.7.7-2.9-1.4-6.6-3.2-5.4-4.5-14.6-2.4-17.1.8-1 1.4-4 1.5-6.8 0-2.8.4-9.9.9-15.7.5-7.2.4-11.7-.3-13.8-.6-1.7-.7-3.3-.3-3.5.4-.3 1.1-3.8 1.4-7.8 1.6-18 2.8-27 5.1-36.3 1.3-5.5 2.7-12.3 3-15 .7-4.6 5.8-21.5 10.8-35.7 1.9-5.3 8.3-16.8 9.4-16.8 1.6 0-1.6 11.7-7.2 26.5-8.9 23.8-15 52.4-16.3 77.8-1.1 19.5-.1 44.2 2.4 64.1 1.6 12.1 2.1 14.6 4.9 24.1.8 2.7 2.3 8.5 3.5 12.7 1.1 4.2 2.9 9.8 4 12.5 1.1 2.7 2.2 7.1 2.6 9.7.4 2.7 1.6 5.7 2.6 6.7 1.1 1.1 1.9 2.8 1.9 4 0 1.1 1.3 4 3 6.3 1.6 2.4 3.7 6.3 4.6 8.7 2 5 5.6 10.9 6.6 10.9.4 0 3-3.3 5.8-7.4 2.7-4.1 5.4-7.7 6-8.1.6-.4 3.3-4.1 6.2-8.3 2.8-4.2 7.3-10.5 10-14 6-7.7 6.1-7-2.2-32.7-3.2-9.9-6.3-21.6-7-26-.6-4.4-1.6-10.1-2.1-12.6-1.8-8.1-1.5-48.9.4-62.4 2.7-18.9 5.6-32.9 7.7-37.7 1-2.4 2.4-6.5 2.9-9.1 2.7-11.8 24.7-54.3 33.8-65.1 1.8-2.2 3.3-4.4 3.3-4.9 0-2.3 20.9-24.1 34.7-36.1 26.3-22.8 63.8-42 99.9-51.1 17.5-4.4 26.1-5.3 56.6-6.1l25.8-.7 12.1-18.1c6.7-10 13.7-19.8 15.6-21.9 2.1-2.3 3.1-4.2 2.6-5-.4-.7-.8-2.9-.9-5-.1-2.3.2-3.3.7-2.6.4.7.5 1.7.3 2.1-.3.4 0 .8.5.8.6 0 1.1-.5 1.1-1.1 0-.5.5-.7 1-.4.6.4 3.1-.1 5.5-1.1 3.6-1.3 4.8-1.4 6-.4 1.9 1.6 1.2 2.6-2.3 3.3-3.5.7-11.2 9.1-16.1 17.5-5.7 9.9-24.3 34.9-26.9 36.1-2.9 1.4-11.1 1.4-24.1.1-7.1-.8-11.3-.8-13.9 0-2 .6-9.3 1.5-16 2-6.8.5-16.1 1.8-20.5 2.9-15.1 3.6-50 15.2-54.2 18-2.2 1.5-9 5.4-15.2 8.6-7 3.6-15.4 9.1-22.4 14.7-6.2 4.9-13.1 10-15.3 11.3-2.3 1.3-5.7 4.6-7.7 7.2-2 2.6-7.8 9.2-12.8 14.6-9.8 10.7-34.8 47.1-37.1 54.2-.7 2.2-3.4 9.5-6 16.2-2.7 6.6-5.5 15.2-6.4 19-.8 3.7-2.2 8.8-3.1 11.2-.8 2.4-1.3 4.6-1 4.9.3.3 0 1.1-.7 1.9-.6.7-.8 1.6-.5 2 .4.3.2 1.2-.4 2-.6.7-.9 2.2-.6 3.2.3 1.1.1 2.1-.4 2.3-.5.2-1 4.2-1.2 9-.1 4.8-.5 8.8-.9 8.8s-.7 7.2-.6 16c0 14 .7 18.9 2 14.8 1.2-3.4 3 4.5 3.5 14.5.3 6.4 1.5 15.3 2.8 20.7 1.3 5.2 2.6 11.4 2.9 13.8.4 2.3 2.9 10.4 5.7 18 7.8 21.3 7.6 18.8 1.6 22.2-4.3 2.5-5.7 4-8 8.9-1.6 3.2-4.9 8.3-7.4 11.2-8.2 9.7-8.8 10.5-10.1 12.8-.7 1.2-1 2.7-.6 3.3.4.6.3.8-.4.4-.6-.3-3.1 2.3-5.9 6.1-5.5 7.8-7.6 12-6.7 13.5.4.6.2.8-.4.4-.5-.3-1.2-.1-1.4.6-.3.7-2.4-1.6-4.7-5.1-7.7-11.3-23.4-47-26.1-59.1-.6-3-1.4-6.2-1.8-7-.3-.8-1-3.3-1.6-5.5-1.1-3.9-3.3-5.2-2.9-1.7.7 5.4 2.4 11.6 5 18.2 1.6 4.2 3.8 10.7 4.8 14.5 1 3.9 2.9 8.6 4.1 10.5 1.3 1.9 2.9 6.1 3.7 9.2.8 3.2 2.7 7.2 4.1 8.9 1.4 1.7 2.6 4.1 2.6 5.4 0 1.4 1.3 3.9 2.9 5.7 1.5 1.8 4.1 5.7 5.6 8.5 2.9 5.6 3.9 6.2 7.1 3.8 1-.8 3.6-1.5 5.7-1.5s4.8-.5 5.9-1.1c1.2-.6 6.5-1.3 11.7-1.5 18.6-.8 28.1-2.3 28.1-4.6 0-.5.4-.7.8-.4 1.3.8 5.3-2.4 4.6-3.6-.4-.6-.2-.8.4-.4 1.2.7 5.9-4.7 8.9-10.3 1.6-2.9 1.8-4.2.9-5.1-.8-.8-.7-1 .5-.5 1.2.4 2-.5 3.2-3.7.9-2.4 1.8-5.4 1.9-6.8.2-1.4.8-2.8 1.3-3.2.6-.5.4-.8-.5-.8-1.2 0-1.3-.2-.1-.9.9-.6 1.5-3.5 1.8-8.2.3-4.1 1.1-8.1 1.7-8.9 4.2-5.3 4.2-12.6.1-21.5-1.3-2.8-2.6-6.6-2.9-8.5-.3-1.9-.9-5.2-1.2-7.3-.6-3.3-1.4-4.2-3.6-3.8-.4 0-.5-.9-.3-2.1.3-1.1.1-2.6-.2-3.2-1.1-1.7-1-6.7.1-7.3.5-.3.6-.1.2.5-.3.6-.2 1.3.3 1.6 1 .7.7-4.6-.4-6.4-.5-.9-.4-1.1.3-.6.7.4 1.2.3 1.2-.2 0-.6-.7-1.3-1.6-1.6-.9-.4-1.4-.9-1.1-1.3.4-.3.1-1.3-.5-2.1-1.4-1.7-1.9-6-.7-6.8.5-.2.6-1.1.2-1.9-.3-.8-.1-1.5.4-1.5s.9 2.2.8 5c-.1 2.7.2 4.7.6 4.4.4-.2.6.5.4 1.6-.2 1.1 0 1.8.5 1.5.9-.6.8-2.4-.3-4.2-.4-.6-.3-1.4.3-1.8.6-.4.7-1.2.3-1.8-.9-1.4-1.2-20.7-.3-20.2.3.2.6-1.8.7-4.3.1-5.7.7-10.4 1.4-11.7.9-1.7.5-5.5-.6-5.3-.5.2-1 2.4-1 5 .1 2.6-.2 4.5-.5 4.3-.4-.2-.6 2.1-.5 5.1.1 3.3-.4 5.9-1.1 6.5-1.4 1.1-1.4-.7-.1-2.9.5-.7.3-1.2-.5-1.2s-.9-.3-.3-.8c.6-.4 1-2.6 1-5-.1-2.4.2-4.5.6-4.8.4-.2.5-2 .3-3.9-.1-1.9.1-3.5.5-3.5.5 0 .7-1.4.6-3-.1-1.7.1-3.3.6-3.6.5-.3.6-1.1.3-1.7-.4-.7-.3-.8.2-.4 1.2 1.1 1.3 6.1.2 6.8-.5.3-.2.9.7 1.3 1.4.5 1.6.2 1.3-1.9-.3-1.3 0-2.6.6-2.9.7-.3.6-.5-.2-.5-1-.1-1-.6.1-2.4.8-1.2 1.3-2.9 1.2-3.7 0-.8.3-1.8.8-2.1.5-.3.2-.9-.6-1.2-1.1-.4-1.5 0-1.2 1.4.2 1.1 0 1.7-.5 1.4-.5-.3-.7.6-.4 2 .4 2.2.3 2.4-1 1.3-.7-.7-1.1-1.5-.7-1.8.4-.3.7-1.7.6-3.2-.1-1.5.2-2.5.7-2.2.5.3.8 0 .7-.7-.3-1.7 1.1-4.9 2-4.9.4 0 .8.7.8 1.5s-.3 1.2-.7 1c-.3-.2-.7.5-.7 1.6-.1 1 .3 1.9.8 1.9.6 0 .7-.5.4-1-.3-.6-.1-1 .5-1 .7 0 1-.6.7-1.4-.3-.7 0-1.9.6-2.5.6-.6.8-1.1.4-1.1-.3 0-.2-1.1.3-2.5.6-1.5.6-2.6-.1-3-.5-.4-.9-.3-.8.2.1.4 0 1.1-.1 1.5-.1.5-.3 1.3-.4 2 0 .6-.8 1.3-1.6 1.5-1.3.4-1.3.3 0-.6.8-.6 1.1-1.1.6-1.1-.5 0-.3-.7.4-1.5s.9-1.5.4-1.5c-.5-.1.2-1 1.6-2.1 2.3-1.9 3.9-5.6 1.9-4.3-.5.3-.7 1-.4 1.5.4.5.1.9-.4.9-1.3 0-1.4-1.3-.3-2.4.4-.4.7-1.5.7-2.4.1-.9.6-2.7 1.3-4 .7-1.2 1-2.7.7-3.2-.4-.6 0-1.3.9-1.6.8-.3 1.2-1.2.9-2-.3-.8 0-2 .6-2.8.6-.7.8-1.6.5-1.9-.4-.3.9-1.5 2.7-2.6 1.9-1.2 3-2.1 2.5-2.1s-.3-.6.3-1.4c.9-1.1.8-1.8-.4-3-1-.9-1.2-1.6-.5-1.6.6 0 .9-.4.6-.9-.3-.5.1-1.4.9-2.1.8-.7 1.2-1.7.9-2.2-.4-.6.4-.5 1.6.2 1.2.7 2 .7 1.6.2-.3-.6-.3-1.2.1-1.5.5-.2.3-.2-.4-.1-.7.2-1.5-.2-1.9-.8-.5-.7-.2-.8.6-.3.9.6 1.2.4.8-.7-.4-.8 0-1.5.8-1.5.7 0 1 .5.7 1.1-.4.6.3.2 1.5-.8 1.2-1.1 2-2.1 1.8-2.3-.3-.3.9-2.5 2.4-5 1.6-2.5 2.7-5 2.4-5.5-.9-1.4-2.4.2-1.7 1.9.4 1.1.3 1.4-.5.9-.8-.5-1-.1-.6 1.1.4 1.3.3 1.5-.4.5-.7-1.1-1-1-1.6.3-.3.9-.3 2.2.1 2.7.4.7.1.8-.7.3-.8-.5-1.1-.4-.6.3.3.6.2 1.3-.4 1.7-.6.4-.8 1.1-.5 1.6.3.5-.1.6-1 .2-1.3-.5-1.4-.7-.3-1.4.7-.5 1-.9.6-.9s.1-1.5 1.2-3.3c1.1-1.7 2.3-4 2.6-5 .6-1.6 1.6-2.1 4-1.8.6.1 1.7-.6 2.4-1.4.7-.8.9-1.5.6-1.5-.4 0 .2-.9 1.3-2.1 1.1-1.2 1.7-2.8 1.4-3.7-.4-1-.2-1.3.5-.8.8.5 1 .2.5-.9-.5-1.3-.7-1.4-1.4-.3-.5.7-.9.8-.9.3.1-1.9 2.8-4.7 3.5-3.6.3.6.1 1.1-.5 1.1s-.8.5-.5 1c.6.9 3.2-.7 3.1-2 0-.4 2.8-3.9 5.9-7.4 3.1-3.4 8-10.2 8-11.1 0-.5.5-1 1.2-1s1.8-.6 2.4-1.3c.7-.6 1-1.2.6-1.2-.3 0 .6-1.2 2-2.8 1.4-1.5 3-2.6 3.5-2.4.5.1.7-.1.4-.6-.6-.9 3.3-4.7 4.9-4.7.6 0 1-.5 1-1.2s1.5-2.3 3.4-3.7c4.3-3.2 7.1-6.2 7.1-7.6 0-.6.4-.9.9-.5 1 .5 7.8-4.8 9.4-7.3.5-.7 1.2-1 1.8-.7.5.4 1.2-.1 1.5-.9.3-.9 1-1.3 1.5-1 .5.3.6-.2.3-1-.5-1.3-.9-1.2-2.6.4-1.2 1.1-2.6 1.7-3.1 1.3-.6-.4-.7-.1-.2.7.6.9.4 1.1-.5.5-.9-.6-1.1-.4-.5.5.6.9.4 1.1-.5.5-.9-.6-1.1-.4-.5.5.5.8.4 1.1-.3.7-.5-.4-2.1.5-3.4 2.1-2.3 2.8-2.9 3.2-4.9 3.2-.5 0-.8.4-.4.9.3.6-.4 1.5-1.5 2.1-1.1.6-1.8 1.5-1.5 2.1.4.5.1.9-.4.9-.6 0-1.1-.5-1.1-1.2s-1.1.3-2.4 2.1c-1.6 2.1-2.6 2.8-2.9 1.9-.4-1-.6-1-.6-.1-.2 3-3 6.5-4.4 5.6-.6-.4-.7-.1-.2.7.6.9.4 1.1-.5.5-.9-.6-1.1-.4-.5.5.6.9.4 1.1-.5.5-.9-.6-1.1-.4-.5.5.6.9.4 1.1-.5.5-.9-.6-1.1-.4-.5.5.6.9.4 1.1-.5.5-.9-.6-1.1-.4-.5.5.6.9.4 1.1-.6.5-.8-.5-1.1-.4-.6 0 .9 1-4.2 6.7-5.4 5.9-.4-.2-.6.4-.4 1.5.3 1.5 0 1.8-1.2 1.4-1.3-.5-1.5-.2-.9 1.3.6 1.6.5 1.7-.6.6s-1-1.6.6-2.8c1.1-.8 1.6-1.4 1.1-1.4s1.9-2.9 5.5-6.5c3.5-3.5 6.8-6.1 7.3-5.8.6.4.8 0 .5-.8-.3-.8.9-2.9 2.8-4.9 1.9-1.9 3.4-3.1 3.4-2.7 0 .3 1.9-1.4 4.2-3.7 2.6-2.8 4.7-4.2 5.6-3.8.9.3 1.3.1.9-.5s.2-1.8 1.3-2.8c1.1-1 2-1.4 2-1 0 .4 1.4-.6 3-2.3 1.7-1.8 3-2.7 3-2.1 0 .5.5.7 1 .4.6-.4.8-1 .5-1.5-.6-1 1.5-.8 3.3.4.7.4 1.6.5 1.9.2.4-.3.2-.6-.4-.6-.6 0-1.4-.8-1.7-1.7-.4-1-.4-1.4 0-1 .4.4 1.4-.2 2.1-1.3.8-1.1 1.9-1.8 2.4-1.5.5.4.9.2.9-.3 0-1 4.8-2.7 6.4-2.3.5.1.6-.5.2-1.4-.3-.9-.2-1.3.4-1 .6.3 1 0 1-.7 0-.9.3-.9 1 .2.9 1.4 1.4.7 1.1-1.3-.1-.5.3-.6.9-.2.5.3 1 .1 1-.5 0-.7.5-.6 1.4.2.8.7 1.2 1.7.9 2.2-.3.4-.9.3-1.3-.3-.5-.9-1-.8-1.9.3-.9 1.1-.9 1.6 0 2.2.8.5.9.3.4-.6-.5-.8-.3-1.1.6-.8.8.3 2.5-.3 3.8-1.3 1.3-1 2.8-1.6 3.4-1.2.6.4.7.1.2-.7-.6-1-.4-1.2.8-.7.8.3 2.1-.1 2.7-.8.7-.8 1.6-1.3 2-1 .4.3 1.3-.2 2-1 .6-.7 1.7-1.2 2.4-.9.8.3 1.6-.2 2-1.1.3-.9 1-1.3 1.6-1 .6.4.7-.1.3-1.1-.4-1.1-.8-1.3-1.1-.6-.2.7-.9.9-1.4.6-.7-.5-.8-.2-.3.6.6.9.4 1.1-.5.5-.8-.5-1.1-.4-.6.3.3.6-.1.9-.9.8-1.5-.2-2.2-2.1-.7-2.1.4-.1 1.7-.6 3-1.3 1.2-.7 2.2-.9 2.2-.5s.7 0 1.5-1.1c.7-1 1.8-1.5 2.4-1.2.6.4 2.2-.1 3.6-1s2.5-1.2 2.5-.8c0 .5.5.2 1-.6.9-1.3 1-1.3 1 0s.1 1.3 1 0c.5-.8 1.5-1.5 2.2-1.5.7-.1 2.2-.6 3.3-1.2 1.1-.6 2.8-.9 3.8-.8.9.2 1.7-.2 1.7-.8 0-.7.5-.5 1 .3.8 1.3 1 1.2 1-.4 0-1.2.5-1.6 1.5-1.3.8.4 1.7.1 2.1-.4.4-.6 1.9-.8 3.6-.5 1.7.3 2.7.2 2.3-.4-.3-.5.6-.7 2.1-.4 1.4.3 2.3.1 2-.4-.5-.9-.3-1 5.9-1.6 2.2-.2 4-.5 4-.6 0-.1 2.3-.4 5.2-.5 4.3-.2 5.3.1 6.2 1.9 1 2 1.1 2 .8.1-.1-1.2.3-1.9 1.1-1.8.6.2 1.2-.2 1.2-.8 0-.5.5-.7 1-.4 1.7 1.1 1.1 2.4-.9 2-1.4-.3-1.8.1-1.4 1.2.3.8.9 1.1 1.2.5.3-.5 2.1-.8 3.9-.6 1.7.1 3.2-.1 3.2-.6s-1-.7-2.2-.5c-1.6.3-1.9.2-1.1-.6.7-.7 3.3-1.3 6-1.4 2.6-.2 4.9-.4 5.1-.5.1-.2 1-.3 2-.4.9-.1 2.2-.4 2.7-.7.6-.4 1.8-.5 2.8-.4.9.2 1.7-.1 1.7-.7 0-.5.9-.6 2-.3 1.1.4 2 .2 2-.4 0-.6.3-1 .8-1 .4.1.9 0 1.2-.1.3-.1 1.2-.3 2-.5 3.8-.8 4.5-1.1 5.1-1.8.3-.5 1.4-.9 2.3-1.1 1-.1 2.1-.8 2.6-1.5.6-1 1.2-1.1 3-.1 1.2.7 2 .8 1.7.2-.4-.5.5-1.4 1.9-2.1 1.4-.6 2.3-1.5 1.9-2-.3-.6.1-1.3.9-1.8 1.5-.8 4.8-7.6 5.1-10.6.2-.9.4-2 .5-2.5.2-.4.4-1.2.5-1.7l.5-1.5c.7-1.9.7-3.9-.1-3.4-.5.3-.6 1-.3 1.6.5.7.2.8-.7.3-.8-.5-1.1-.4-.6 0 .4.5 0 1.9-.9 3.3-.9 1.3-1.2 2.2-.7 1.9.5-.4 1 .1 1 .9 0 1-.4 1.1-1.1.4-2-2-2.6-.9-.9 1.7 1 1.5 1.3 2.4.7 2.1-.6-.4-1.1-.2-1.2.5-.2 2.2-.8 4.2-1.6 5.6-.7 1.1-1 1.1-1.8 0-.7-1-.8-.9-.3.6s.3 1.7-.5.9c-.9-.9-.8-1.9.3-4 .8-1.6 1.3-3.7 1.2-4.7-.2-.9.1-1.7.6-1.7.6 0 .7-.4.4-1-.3-.5.5-2.1 1.9-3.5s2.3-2.5 2-2.5c-.3 0 .5-1.3 1.9-2.9 1.3-1.6 3.4-4.9 4.5-7.3 1.2-2.4 3.5-5.8 5.2-7.6 1.6-1.8 3-3.7 3-4.3 0-.5.8-1.7 1.8-2.7 1.1-1.1 3.3-4 5-6.5 4-5.8 4.2-10 .6-13-1.5-1.2-3.6-3.1-4.8-4.2-5-4.6-25-9.7-50.6-13-11.4-1.5-53-3.2-54-2.3zm-4.6 4c-.5.8-.1.9 1.2.4 1.5-.6 1.7-.5.7.5-2.4 2.5-1.5 4.1 2 3.5 5.5-.8 14.6-1 15.4-.3 1.3 1.3 2.5.7 1.9-1.1-.5-1.5-.4-1.5.8.2 1.8 2.2 8.6 3.1 16.6 2l5.5-.7-4-1.8-4-1.8h7c7.6-.1 11.4 1.1 7.3 2.3-2.2.7-2.2.7-.3 1.5 1.4.6 2.6.3 4-.8 1.9-1.5 1.9-1.5.5.3s-1.3 1.9.3 1.3c.9-.3 1.7-.2 1.7.3 0 .6.8 1 1.8 1 .9 0 3.2.9 5 2 1.8 1.1 3.9 1.7 4.5 1.3.7-.4.6.1-.2 1.1-1.2 1.4-2.3 1.6-5 1.1-2-.3-7-1-11.1-1.5-22.1-2.6-26.7-2.8-47.5-1.4-27.2 1.8-25.1 1.8-25.1-.9 0-1.9.4-2.2 2.8-1.9 1.9.3 2.8 0 2.8-.9 0-1.2.2-1.2.9 0 1.4 2.2 3.9.6 3.6-2.3-.3-2.4 0-2.6 3.8-2.6 2.3 0 4.9-.5 5.7-1 2-1.3 2.3-1.2 1.4.2zm12.3-.5c-.4.3-.1 1.3.6 2.2 1.1 1.4 1 1.4-.5.2-1.6-1.2-1.6-3.1-.1-3.1.4 0 .3.3 0 .7zm5.4 1c1.2 1.6 1.2 1.7-.2.6-.9-.7-2-.9-2.4-.5-.5.4-.5.1-.1-.6.9-1.6 1.1-1.5 2.7.5zm7 1c1.3 1.6 1.2 1.7-.3.4-1-.7-1.8-1.5-1.8-1.7 0-.8.8-.3 2.1 1.3zm8.9 1.8c-1.1 1.3-3.4 1.5-4.5.3-.3-.3.5-.5 1.7-.4 1.4.1 2.2-.4 2-1.2-.1-.8.2-1.1.8-.7.8.5.8 1.1 0 2zm3 .5c0 .5-.5 1-1.1 1-.5 0-.7-.5-.4-1 .3-.6.8-1 1.1-1 .2 0 .4.4.4 1zm33.4 1.9c.3.5-.2 1.5-1.2 2.2-1.5 1.2-1.6 1.2-.5-.2.7-.9 1-1.9.6-2.2-.3-.4-.4-.7 0-.7.3 0 .8.4 1.1.9zm3 3.9c.2.4-.4.8-1.4.8-1 0-1.6-.4-1.4-.8.3-.4.9-.8 1.4-.8.5 0 1.1.4 1.4.8zm13.4 69.7c-2.1 1.7-4.8 2.4-5.4 1.3-.4-.6-.3-.8.3-.5.6.4 1.3 0 1.7-.8.3-.8 1.2-1.2 2.1-.9.9.4 1.5.8 1.3.9zm-120.6 35c-.3.5-.7.4-1-.3-.2-.7-.9-1.2-1.4-1.2-.6 0-.8.3-.5.7 1.3 1.2-1.5 3.4-2.8 2.3-.9-.8-1.4-.6-1.8.5-.4.9-1.3 1.2-2.3.8-1.2-.4-1.5-.3-1 .5.4.7.5 1.2.2 1.2s-.7-.4-1.1-1c-.5-.8 4.8-4.3 6.7-4.5.4 0 1.2-.5 1.9-1.2 1.3-1.3 4.1.5 3.1 2.2zM586 754.3c0 .2-1 1.2-2.2 2.3l-2.3 1.9 1.9-2.3c1.8-2.1 2.6-2.7 2.6-1.9zm-161.7 7.4c-.7.2-1.3 1.3-1.3 2.2 0 1-1.3 3.5-3 5.6-1.6 2.1-3 4.6-3 5.6 0 2.1-4.5 7.7-5.5 6.7-.7-.6 1.8-6.2 4-8.8.7-.8 1.5-2.7 1.8-4.1.9-3.6 4.5-7.9 6.5-7.8 1.1 0 1.2.2.5.6zm148.7 3.7c0 .2-.8 1-1.7 1.7-1.6 1.3-1.7 1.2-.4-.4 1.3-1.6 2.1-2.1 2.1-1.3zm-25.2 25.7c-.7.5-.9.9-.5.9.5 0-1.4 2.6-4.2 5.9-2.8 3.2-4.8 6.1-4.4 6.5.3.3.2.6-.4.6-.6 0-1.3-.7-1.7-1.5-.3-.8-.2-1.4.2-1.4 1.8.3 2.6-.2 1.5-.9-.9-.6-.1-2 2.9-5 2.2-2.3 3.8-4.2 3.3-4.2-.4 0-.2-.6.5-1.4.6-.8 1.8-1.2 2.7-.9 1.2.5 1.2.7.1 1.4zm-15.7 22.3c-1.1 1.2-2 2.4-2 2.8-.1.8-.2.9-2.3.7-1 0-1-.2 0-.6.6-.2 1-.8.7-1.3-.3-.4.2-1.3 1-2s1.5-1.9 1.5-2.7c0-1.3.3-1.3 1.5-.3 1.4 1.2 1.3 1.5-.4 3.4zm-17.7 31.5c.3.4-.4 1.7-1.6 2.7-1.3 1.2-1.8 1.3-1.2.4.5-.8.9-1.8 1-2.3.3-1.5.4-1.7.8-1.7.3 0 .7.4 1 .9zm-61.6 19.6c-.3.3-.9-.2-1.2-1.2-.6-1.4-.5-1.5.5-.6.7.7 1 1.5.7 1.8zm7.9-1c0 .8-.4 1.2-.9.9-.5-.3-.6-1-.3-1.5.9-1.3 1.2-1.1 1.2.6zm-9.2 6.3c-1.7 1.5-1.8 1.5-.6 0 .7-.9.9-2.3.5-3-.6-1-.4-1.1.7 0 1.1 1 1 1.5-.6 3zm10.4-2.2c-1.2 1.5-1 1.6 2.3 1.2 2.2-.2 3.4 0 3.1.6-.4.5.1.7 1 .3.9-.3 1.9-.1 2.3.5.4.6.3.8-.4.4-1.6-1-2.5 1.3-1.1 3 1 1.2.9 1.3-.6.8-1.4-.6-1.6-.4-1 .6 1.1 1.8 1.3 12 .3 14.2-.5 1-.5 1.8 0 1.8 1.2 0 .6 3.9-2 12.3-1.4 4.6-1.9 8.3-1.6 11.7.4 4.2.2 5.3-1.3 6-1.5.9-2 .2-3.4-4.8-6.6-22.4-7-28.4-2.6-39.1 1.7-3.9 2.7-7.1 2.4-7.1-.3 0 .2-.9 1.2-2 2.2-2.4 3.3-2.7 1.4-.4zm-10.9 9.8c0 .3-.4.8-1 1.1-.5.3-1 .1-1-.4 0-.6.5-1.1 1-1.1.6 0 1 .2 1 .4zm-2.4 7.2c.1.9 0 1.3-.4 1-.3-.4-.7-1.4-.8-2.2-.1-.9 0-1.3.4-1 .3.4.7 1.4.8 2.2zm.4 7c0 .8-1.9 1.3-2.4.6-.3-.5.1-.9.9-.9s1.5.2 1.5.3zm-1.9 12.1c1.3 1.6 1.2 1.7-.3.4-1.7-1.3-2.2-2.1-1.4-2.1.2 0 1 .8 1.7 1.7zm0 12c1.3 1.6 1.2 1.7-.3.4-1.7-1.3-2.2-2.1-1.4-2.1.2 0 1 .8 1.7 1.7zm45.6 17.3c-.5 2.9-1.3 3.3-1.3.5 0-1.4.4-2.5.8-2.5s.7.9.5 2zm0 6c.1 1.1-.2 2.2-.6 2.5-.5.2-.8-.7-.8-2 0-3 1.2-3.4 1.4-.5z"/><path d="M650 620c0 .6.7 1.3 1.5 1.6 2.1.9 8.5-.5 8.5-1.8 0-.6-.7-.7-1.7-.3-3 1.2-4.7 1.3-6.5.3-1.2-.6-1.8-.5-1.8.2zM620.6 731.2c.3.5 1 .6 1.5.3 1.3-.9 1.1-1.2-.6-1.2-.8 0-1.2.4-.9.9zM545.9 790.7c-.1.5-.1 1.1-.1 1.4.1.3-1.5 2.1-3.3 3.9-1.9 1.9-3.5 3.8-3.5 4.4 0 1.3 7.4-7.4 7.6-9.1.1-.7 0-1.3-.2-1.3s-.5.3-.5.7zM530.4 813.2l-1.9 2.3 2.3-1.9c2.1-1.8 2.7-2.6 1.9-2.6-.2 0-1.2 1-2.3 2.2zM614.4 626.1c-.2.5-1.1.6-1.9.2-1-.3-1.5.1-1.5 1.3s.3 1.5.8.8c.4-.6 1.5-1 2.4-.9.9.2 2.2-.2 2.7-.9.8-.9.6-1.3-.5-1.3-.8 0-1.7.4-2 .8zM608 628c-.8.5-1.7.7-2.1.4-.4-.2-1 0-1.4.5-.3.6-1.2.8-2 .4-.8-.3-1.5-.1-1.5.4s-.6 1-1.2 1.1c-1.5.1-5.2 1-5.5 1.2-.2.2-.7.4-1.3.5-.5.1-1.3.4-1.7.5-.5.1-1.1.2-1.5.1-.5 0-.8.3-.8.8s-.8.8-1.7.6c-1-.1-2.7.2-3.8.8-1.1.6-2.8 1.1-3.8 1.2-1 0-2.1.5-2.5 1-.4.6-1.8 1.1-3.2 1.2-3.4.3-5.3.7-6.7 1.6-.7.5-1.3.5-1.3.2s-1 .3-2.2 1.5c-1.2 1.1-1.8 2.3-1.5 2.7.4.3.7.1.7-.6 0-.8.6-1.1 1.6-.7 1 .4 1.3.2.8-.6s-.2-.9.9-.5c.9.3 1.9.2 2.2-.4.4-.5 1.2-.8 1.8-.7.7.1 2.2-.3 3.5-1 1.2-.7 2.2-1 2.2-.7 0 .3 1 0 2.3-.7 2.1-1.1 2.7-1.4 6-2.1.6-.1 1.8-.6 2.5-1 .6-.5 1.2-.6 1.2-.2 0 .3 1 0 2.3-.7 1.2-.7 3-1.3 4-1.4.9-.1 2-.3 2.5-.4.4-.1 1-.2 1.5-.1.4 0 .7-.4.7-1 0-.5.4-.8.9-.4.5.3 1.2.1 1.6-.5.4-.6 1-.8 1.5-.5.5.3 1.1.1 1.5-.4.3-.6 1.1-.8 1.8-.6 1.3.5 4.4-1.1 3.6-1.9-.2-.3-1.1-.1-1.9.4zM551 646.5c0 .8 2.9 1.2 3.9.5.9-.5.4-.8-1.3-.8-1.4 0-2.6.2-2.6.3zM542 653.5c-.7.9-1.9 1.4-2.6 1.1-.7-.3-1.8.2-2.5 1-.6.8-1.4 1.2-1.6 1-.6-.6-10 5.2-10.9 6.6-.4.5.4.4 1.7-.3 1.3-.7 2.8-1.2 3.2-1.1.5.1.5-.3.1-.9-.5-.9-.2-1 1-.6 1.1.5 1.5.3 1-.5-.5-.7-.2-.9.9-.5.8.3 2.1-.1 2.7-.8.7-.8 1.5-1.4 1.8-1.3 1.3.3 6.1-2.5 6.6-3.8.7-1.8.1-1.8-1.4.1zM817 679.9c0 .6.4 1.2.8 1.5.5.3.9-.1.9-.9s-.4-1.5-.9-1.5c-.4 0-.8.4-.8.9zM748.9 683.7c-.1 1.6-.7 3.8-1.4 5.5-.4 1-.3 1.8.2 1.8s1-.6 1.1-1.3c0-.6.3-2.4.6-4 .4-1.5.4-2.7.1-2.7-.3 0-.5.3-.6.7zM481.5 695.1c-.4.6-.5 1.2-.2 1.5.2.3.7-.2 1-1.1.7-1.7.1-2-.8-.4zM739.1 700.4c-1.4 1.7-.1 2.8 1.9 1.6 1.1-.7 1.2-1.2.4-2-.8-.8-1.4-.7-2.3.4zM735 702.4c-.7.9-1.6 1.4-2 1.1-.5-.3-1.2 0-1.5.6-.4.5-1.3.8-2.1.5-.8-.3-1.7.1-2 .8-.3.8-1.6 1.3-3 1.1-1.3-.1-2.7.1-2.9.6-.3.4-1.4.6-2.5.4-1.1-.2-2.2 0-2.5.5-.3.5-1.4.7-2.5.5-1.1-.2-2.2.1-2.5.6-.4.5-1.1.7-1.6.4-.5-.4-.9-.1-.9.4 0 .9 3.7.9 4.8 0 .1-.1 1.4-.2 3-.3 1.5-.1 3.2-.4 3.7-.7.6-.4 1.8-.5 2.8-.4.9.2 1.7-.2 1.7-.8 0-.7.5-.5 1 .3.6.9 1 1 1 .3 0-.6.8-1.2 1.8-1.2 3.9-.1 5.1-.5 4.9-1.5-.1-.6.6-1 1.5-.8 2 .3 2.9-1 1.9-2.6-.6-1-1.1-.9-2.1.2zM704.6 710.1c.3.5 1.2.9 2.1.9 1.9 0 .9-1.3-1.2-1.6-.8-.1-1.3.2-.9.7zM681.6 712.4c-.9 1.1-1.3 1.4-1 .5.3-1-.1-1.6-1.1-1.6s-1.4.6-1 1.6c.3 1.1 0 1-1-.3-.8-1.1-1.5-1.4-1.5-.7s-.4 1-.9.6c-.5-.3-1.3 0-1.6.6-.4.5-1.3.8-2.1.5-.7-.3-1.6-.1-1.9.4-.4.6-1.9.8-3.5.5-1.6-.3-3.2 0-3.5.5-.4.6-1 .8-1.5.5-.4-.3-1.1.2-1.4 1.1-.3.8-1 1.2-1.6.9-.5-.3-1-.1-1 .4 0 .6-.5 1.1-1.1 1.1-.5 0-.8-.4-.4-.9 1-1.7-3.9-.2-5.1 1.4-.9 1.3-1.3 1.3-1.7.3-.5-1-.8-.9-1.7.4-.6.9-1.9 1.5-3 1.3-1.1-.2-2 .1-2 .7s-.3.8-.7.5c-.3-.4-1.5 0-2.5 1-1.3 1.1-1.8 1.2-1.8.3 0-1-.3-1-1.5 0-1.1.9-1.3 1.6-.6 2.3.7.7 1.5.6 2.6-.3.8-.7 1.5-.9 1.5-.5s.6.2 1.3-.4c.8-.6 1.7-.8 2-.4.4.3.9-.1 1.2-.9.4-1 1.4-1.4 2.7-1 1.5.3 1.9.2 1.4-.7-.5-.8 0-1 1.7-.7 1.4.2 2.8.2 3.1-.2.4-.3 1.4-.7 2.2-.8.9-.1 2.3-.6 3.2-1 2.2-.9 4.3-1.5 6.7-1.7 1.1-.2 2.5-.5 3-.9.6-.3 1.8-.4 2.8-.3.9.2 1.5-.1 1.2-.5-.3-.5 1-.7 3-.6 1.9.2 3.7 0 4-.4.3-.5 1.4-.7 2.5-.5 1.1.2 2.2 0 2.5-.5.3-.4 2.1-.6 4-.4 2.8.2 3.5-.1 3.5-1.4 0-1.5.2-1.5 1.1-.2.8 1.2 1 1.2.7.1-.3-.9-2-1.5-5.1-1.6-3.7-.2-4.9.2-6.1 1.9zm7.9-.2c.3.2-.7.4-2.2.3-1.6-.1-3.4.3-4.1.8-.9.7-1.1.6-.6-.6.5-1.5 5.6-1.9 6.9-.5zm-12.1 1.9c.3.3-.5.5-1.9.5-1.3 0-2.2-.3-1.9-.7.4-.8 3-.6 3.8.2zm-12.4 1.7c0 .5-.7.9-1.5.9s-1.2-.4-.9-.9c.3-.4.9-.8 1.5-.8.5 0 .9.4.9.8zm-10.4 3.4c.4.7.4 1-.1.6-.4-.4-1.4-.3-2.2.3-.8.8-1.3.8-1.3.1 0-.6.6-1.3 1.3-1.5.6-.3 1.3-.6 1.4-.6.1-.1.5.5.9 1.1zM468.5 712.1c-.3.4.2.6 1 .5 2.1-.3 2.8-1.3 1-1.3-.9 0-1.8.4-2 .8zM450.1 727.4c-.8.9-.8 1.6-.2 2 .5.4 1.2.2 1.6-.4.3-.5.3-1-.2-1-.4 0-.1-.5.7-1 .8-.5 1-1 .4-1s-1.7.6-2.3 1.4zM709.7 734.4c-4.7 3.5-9.9 7.2-11.8 8.1-1.8 1-4.1 2.8-5.1 4-.9 1.2-4.3 3.9-7.5 6.1-3.2 2.1-7.4 5.3-9.3 6.9-2 1.7-6.1 4.8-9.1 6.8s-6.7 5-8.2 6.7c-1.5 1.6-3.3 3-4 3-1.6 0-6.3 4.8-5.5 5.6.9.8 6.5-2.3 7.2-4.1.3-.8 1.6-2 2.8-2.5 4.1-1.7 9.5-5.4 15-10.1 2.9-2.6 11.2-8.8 18.3-13.9 7.2-5.1 14.1-10.2 15.6-11.4 1.4-1.2 4.8-3.2 7.7-4.6 4-1.9 5.2-3 5.2-4.7 0-3.6-2.3-2.8-11.3 4.1zM445.8 732c-1.3 1.1-1.9 1.9-1.5 2 .4 0 .2.6-.5 1.4-.7.8-1.6 1.2-2 .9-.4-.2-.5.4-.1 1.3.5 1.3.3 1.5-.8.9-.8-.4-1.1-.5-.7 0 .4.4.3 1.4-.3 2.1-.7.9-.6 1.4.3 2 .7.4 1 .4.6-.1-.7-.7 1.8-3.9 3.4-4.1.4-.1 1.1-.3 1.6-.4.4-.1 1.2-.1 1.7 0 .6.1.7-.2.3-.6-.5-.4.1-1.3 1.2-2.1 1.1-.8 2-2 2-2.7 0-2.3-2.8-2.6-5.2-.6zm3.5 1.5c-.3.8-1 1.5-1.5 1.5-.6 0-1.7.8-2.5 1.7-1.3 1.6-1.3 1.6-.3-.5.6-1.2.7-2.2.3-2.2-.4 0 .2-.6 1.2-1.4 2.3-1.6 3.7-1.2 2.8.9zM607.6 738.5c-.3.9-1 1.3-1.6 1-.5-.3-1-.1-1 .6s-.3.9-.6.6c-.4-.3-1.6-.1-2.8.5-1.1.7-2.4 1.1-2.8 1-.4-.1-1.2.7-1.8 1.8-.9 1.6-.8 1.9.6 1.3 1.2-.5 1.5-.3.9.6-1.1 1.9 2.6-.2 4.9-2.8 1-1.1 2.3-1.8 2.7-1.5.5.3.9 0 .9-.6s.4-.9.9-.5c1.3.8 2.1-.8 1.2-2.4-.6-1-1-.9-1.5.4zm-6.2 5c-.7 1.8-2 1.9-3 .3-.4-.6-.3-.8.4-.4.6.3 1.3.2 1.7-.4.9-1.5 1.5-1.2.9.5zM581.9 754.7c-1.3 1.6-1.2 1.7.4.4.9-.7 1.7-1.5 1.7-1.7 0-.8-.8-.3-2.1 1.3zM573.9 761.7c-1.3 1.7-1.3 1.7.6.3 1.1-.8 2.2-1.6 2.4-1.7.2-.2 0-.3-.6-.3s-1.7.8-2.4 1.7zM553.9 781.7l-2.4 2.8 2.8-2.4c1.5-1.4 2.7-2.6 2.7-2.8 0-.8-.8-.1-3.1 2.4zM516.3 839.2c-1.2 2-1.2 3.7-.1 4.5.7.3.8.1.4-.5-.4-.7-.3-1.2.2-1.2 1.4 0 2.3-2.8 1.2-3.5-.5-.3-1.2 0-1.7.7zM510.9 851.5c-.1.3-.3.9-.4 1.5-.1.5-.4 1.2-.5 1.5-.1.3-.3 1.4-.4 2.5 0 1.2-.8 2.5-1.6 3-1.3.8-1.2 1 .3 1 .9 0 1.8-.5 1.8-1 .2-1.3.6-2.9.9-3.5.1-.3.3-.9.4-1.4 0-.5.4-1.3.9-1.7 1-1.1.9-2.4-.3-2.4-.5 0-1.1.2-1.1.5zM506.8 864.2c-1.6 3-1.9 4.8-.7 4.8.5 0 .9-.5.9-1 0-1.8.2-2.5 1.1-4.3.5-.9.7-1.7.5-1.7-.3 0-1.1 1-1.8 2.2zM493.4 968.2c.1.7.5 1.9.9 2.5.5.7.6 1.7.2 2.2-.3.5-.1 1.2.3 1.5.5.3.8-.9.7-2.7-.4-4.6-.4-4.7-1.4-4.7-.5 0-.8.6-.7 1.2zM1014.3 1046c0 2.5.2 3.5.4 2.2.2-1.2.2-3.2 0-4.5-.2-1.2-.4-.2-.4 2.3zM571.2 1094.2c-.7.7-1.2 1.8-1.2 2.5 0 1.5 6 5.4 7.2 4.7.4-.3.8 0 .8.5 0 .6 1.1 1.1 2.5 1.1 3.9 0 3-2.5-2-5.7-2.5-1.5-4.5-3.1-4.5-3.6 0-1.1-1.4-.9-2.8.5zm5.3 4.6c-.3.3-1.1 0-1.8-.7-.9-1-.8-1.1.6-.5 1 .3 1.5.9 1.2 1.2z"/><path d="M526.2 1108.7c-8.3 10.6-15.7 20.6-24.3 33.2-10.5 15.3-10.2 14.7-8.8 17.3 1.5 3 5 6.8 6.2 6.8.6 0 6.3 3.8 12.8 8.5 6.5 4.7 12.5 8.5 13.4 8.5.9 0 3.2 1.6 5.2 3.5 2.1 2.1 5.6 4 8.7 4.9 2.9.9 6.8 2.6 8.7 3.9 5.9 3.9 42.2 18.6 50.3 20.2 1 .3 2.4.9 3.1 1.5 1 .8 10.1 4.1 12.5 4.4.3.1 1 .5 1.7.9.6.4 2.3.8 3.7.9 1.4.1 2.6.6 2.6 1.1 0 .5 1.1.7 2.5.5 1.3-.3 2.2-.1 1.9.3-.3.5.4.9 1.6.9 1.3 0 1.9-.4 1.4-1.2-.4-.7-.3-.8.5-.4.6.4.9 1.1.6 1.5-.2.5 2.1 1.3 5.2 2 7.2 1.4 7.8 1.4 6.4-.3-.9-1.1-.9-1.6 0-2.2.7-.4.9-.3.6.3-1.3 2 2.9 4.1 9.7 4.7 3.8.4 7.3.9 7.7 1.2.5.3.9 0 .9-.7 0-1 .3-1 1.2-.1 1.5 1.5 8.2 1.6 7.2.1-.3-.6.4-.4 1.7.4 3.2 2 26.4 2.4 25.3.4-.4-.6.1-.5 1.2.4 2.1 1.7 5.8 1.4 4.7-.4-.5-.9-.3-.9.8 0 .8.6 3.7 1.1 6.4 1.1s5.6-.5 6.4-1.1c1.2-1 1.3-.9.6.2-.7 1.2 0 1.3 4 .8 2.6-.4 5.4-.7 6.2-.7.9 0 1.1-.5.7-1.3-.5-.7 0-.6 1.1.3 1 .8 1.9 1.3 1.9 1.1.1-.4 7.8-1.5 18-2.7 2.7-.3 5.7-.9 6.5-1.3.9-.5 2.4-.7 3.3-.6 1 .2 2-.1 2.3-.5.3-.5 1.2-.7 2-.4.8.3 2 .2 2.7-.2.7-.4 1.9-.9 2.8-.9.8-.1 3.2-.5 5.2-.9 2.1-.4 4-.6 4.2-.4.2.2 1.4-.6 2.7-1.7 1.2-1.1 1.9-1.4 1.5-.8-.9 1.5 1 1.8 1.9.3.4-.6 1-.8 1.4-.5 1.4.8 19.5-4.6 20.9-6.3.7-1 1-1.1.6-.3-.9 1.9 3.6.4 5.4-1.8.8-.9 1-1 .6-.2-.9 1.9 3.6.4 5.4-1.8.8-.9 1.1-1 .7-.4-.3.7-.2 1.3.3 1.3.6 0 1.2-.7 1.6-1.5.3-.8 1.2-1.2 2-.9 2.3.9 6-1.5 4.7-3-.8-.9-.7-1.3.4-1.3.7 0 1.3.3 1.2.6-.3.9.6 1.1 3 .5 1.3-.4 2.1-1 1.8-1.4-.3-.5.3-.6 1.4-.3 2.5.6 3.5-1.1 1.6-2.7-.8-.7-1.5-1.7-1.5-2.2 0-.6.9 0 1.9 1.3 1.9 2.3 1.9 2.3 5.6.6 2-.9 3.3-2.2 3-2.7-.3-.5 0-.7.8-.4 1.8.7 8-3 6.9-4.1-.4-.4.1-.5 1-.2 2 .7 4.3-1.7 3.2-3.5-.6-1.1-.5-1.1.8 0 1.3 1 1.9 1 3.2-.3.9-.9 1.6-1.4 1.6-1 0 .7 7.2-4.5 8.2-6 .4-.5 1.2-1 1.8-1 .6 0 1.4-.5 1.8-1.1.4-.5 2.4-2.3 4.4-3.8 2.1-1.6 3.5-3.3 3.1-3.9-.3-.5-.1-.7.4-.4.6.4 4.6-3 8.9-7.4 10.8-11.1 10.6-10.9 9.7-10.9-.4 0 .3-.7 1.5-1.6 1.2-.8 2.2-1.9 2.2-2.4s1.1-2.1 2.5-3.6c2.4-2.6 2.8-5.1.8-4.7-.5.1-1-.5-1-1.3 0-1.2.3-1.2 1.8.2 1.7 1.6 3.6.4 2.4-1.5-.3-.5 0-1.3.6-1.7.8-.5.9-.3.4.7-.5.8-.5 1.1-.2.8 1.2-1 8.8-13.1 7.9-12.5-.5.3-.9-.1-.9-.8 0-.8.7-1.2 1.5-.8 1 .3 1.3.1.8-.6-.4-.7-.3-1.2.2-1.2.8 0 2.3-3.5 2.1-4.9 0-.2.4-.7.9-1 .6-.3 1.2-1.2 1.4-2 .2-.8 2-3 4.1-4.9 3.9-3.7 4.6-5.6 2.2-6.6-1.6-.6-8.5 3-9.8 5.1-1.2 1.9-2.5 1.6-5-1.1l-2.2-2.4-52-.2c-28.6-.1-52.7-.2-53.5-.1-.9 0-4.7 2.1-8.4 4.6-3.8 2.5-7.5 4.5-8.2 4.5-.7 0-2.5 1.1-4.1 2.3-4.6 3.8-26.2 14.7-34.3 17.2-16.2 5.2-39 10.5-49.5 11.6-10.4 1-38 .7-52-.6l-6-.6 3.5 3c2.9 2.4 3.2 3.1 1.9 3.6-1.1.4-1.5 1.4-1.2 2.6.8 3-1.9 3.3-14 1.5-14.3-2.2-27-5.6-41.1-11.1-12.2-4.7-36.2-16.1-37.1-17.6-.4-.5-1.4-.9-2.3-.9-.9 0-4.6-2.2-8.2-5-8.3-6.3-10.7-6.4-15.4-.6-2 2.3-3.6 4.8-3.6 5.3 0 .6-1.2 2.1-2.6 3.4-1.4 1.3-4.3 5-6.5 8.1-2.2 3.2-4.8 6.2-5.9 6.8-2.6 1.4-5 6.2-5 10 0 2.3.9 4 3.1 6.1 1.7 1.6 3.6 2.9 4.3 2.9.6 0 3.4 1.5 6.1 3.4 2.8 1.8 6.1 3.7 7.5 4.1 1.4.4 3.9 1.9 5.5 3.3 6.1 5.1 35.6 18.2 56.9 25.3 11.5 3.8 21.5 6.9 22.3 6.9.7 0 1.3.6 1.3 1.4 0 1.9-3.7 2.4-7.2 1.2-2.2-.8-3.3-.6-5.5 1l-2.8 2.1-22.8-8.2c-21.1-7.6-42.5-17.3-47.2-21.4-1.1-1-7.8-5.3-15-9.6-7.1-4.3-13.4-8.3-14-8.9-.5-.6-2.2-1.9-3.7-2.9-4-2.5-3.8-7.3.2-11.2 1.7-1.6 3-3.3 3-3.9 0-.5 1.3-2.4 2.9-4.1 1.7-1.6 4.1-4.6 5.5-6.5 1.4-1.9 3.7-5.1 5.1-7 1.4-1.9 4.1-5.5 6-8 6.6-8.5 13.5-18.3 13.5-19.2 0-2.2-2.4 0-8.8 7.9zm406.2-2.9c.3.5-.1.9-.9.9s-1.2-.4-.9-.9c.3-.4.7-.8.9-.8.2 0 .6.4.9.8zm-83.6 5.8c-.9.8-12.5.6-15.1-.3-1.5-.6.2-.9 5.8-1.3 7.4-.5 10.7.1 9.3 1.6zm62.9-1c.3.9.2 1.9-.4 2.3-.5.3-4.6 5.2-9.1 10.8-7.7 9.5-32.6 32.5-44.2 40.8-2.3 1.6-6.9 4.9-10.2 7.2-5.2 3.8-20.7 12.2-41.8 22.8-3.6 1.8-10.1 4.5-14.5 5.9-7.3 2.5-8.1 2.5-9.2 1-1.1-1.4-1.9-1.4-10 .9-16.6 4.8-29.2 7.7-33.2 7.7-2.1 0-6.6.7-9.8 1.5-8.2 2-44.4 4.8-45.7 3.5-.5-.5-.7-1.2-.4-1.6.4-.3 6.4-1 13.5-1.5 22.3-1.5 44.7-5 54.4-8.4 2.2-.8 9.2-2.8 15.6-4.6 11.2-3 41.4-14.8 49.1-19.1 14.7-8.4 26.6-16 35.9-23 15.6-11.7 25.1-19.6 26.3-21.9.6-1 1.7-1.9 2.4-1.9 1.9 0 12.8-11.9 12.3-13.4-.3-.8-6.4-1-21.8-.8-11.8.2-24.7 0-28.8-.3l-7.5-.7 2.5-1.9c1.3-1 4-1.9 5.9-1.9 2 0 4.7-.8 6-1.8 2.2-1.5 6-1.8 31-2.2 15.7-.3 29.1-.7 29.8-.8.7-.1 1.5.5 1.9 1.4zm-102.7 1.1c-.1 2.1-3.3 4.6-8.2 6.4-4.7 1.8-5.1 1.8-3.6.3 1.3-1.3 9.1-6.2 11.6-7.3.1-.1.2.2.2.6zm22 5.5c0 .4-2.7.8-6 .8-8.8 0-14.8 1.9-21.4 6.7-6.1 4.5-9.7 6-11.6 4.8-.7-.4 2.5-2.8 7.7-5.7 4.8-2.8 9.8-6 11.1-7.2 3.1-2.8 16.9-4 19-1.7.6.8 1.2 1.8 1.2 2.3zm86.5 8.8c-.3.5-1.2 1-1.8 1-.7 0-.6-.4.3-1 1.9-1.2 2.3-1.2 1.5 0zm-5.5 9.4c0 .2-.8 1-1.7 1.7-1.6 1.3-1.7 1.2-.4-.4 1.3-1.6 2.1-2.1 2.1-1.3zm-9.5 15.5c.3.5.2 1.2-.3 1.5-.5.3-.9-.1-.9-.9 0-1.7.3-1.9 1.2-.6zm-8.9 6.1c0 1.2-.4 1.6-.9 1.1s-.6-1.4-.3-2c1-1.5 1.2-1.4 1.2.9zm3.9 1c.3.6-.1.7-.9.4-1.8-.7-2.1-1.4-.7-1.4.6 0 1.3.4 1.6 1zm-8.4 4.3c-.6.8-.7 1.8-.3 2.2.4.5.1.5-.6.1-1-.6-1-1.1-.1-2.2.6-.8 1.4-1.4 1.6-1.4.3 0 0 .6-.6 1.3zm3.7.6c-.7.9-1.3 1.8-1.5 2-.1.2-.1-.5 0-1.6 0-1.1.7-2 1.4-2 1 0 1 .4.1 1.6zm-4.7 3.8c1.3 1.6 1.2 1.7-.3.4-1-.7-1.8-1.5-1.8-1.7 0-.8.8-.3 2.1 1.3zm-3.8.8c-.3.9-.8 1.4-1 1.1-.3-.3-.2-.9.2-1.5.9-1.6 1.5-1.3.8.4zm2.2 1.4c.3.5.2 1.2-.3 1.5-.5.3-.9-.1-.9-.9 0-1.7.3-1.9 1.2-.6zm-5.1.9c.2.4-.4.8-1.4.8-1 0-1.6-.4-1.4-.8.3-.4.9-.8 1.4-.8.5 0 1.1.4 1.4.8zm-2.4 4.6c0 .2-.8 1-1.7 1.7-1.6 1.3-1.7 1.2-.4-.4 1.3-1.6 2.1-2.1 2.1-1.3zm-4 4c0 .2-.8 1-1.7 1.7-1.6 1.3-1.7 1.2-.4-.4 1.3-1.6 2.1-2.1 2.1-1.3zm-10.4 7c0 1.4-.3 2.3-.7 2-.6-.3-.6-2.2 0-4.2.3-1 .7.2.7 2.2zm-4.6 2.2c0 .8-1.9 1.3-2.4.6-.3-.5.1-.9.9-.9s1.5.2 1.5.3zm-4.4 4.6c.3.4-.1.5-1 .4-.8-.1-1.8-.5-2.2-.8-.3-.4.1-.5 1-.4.8.1 1.8.5 2.2.8zm-7 4.4c.1.9 0 1.3-.4 1-.3-.4-.7-1.4-.8-2.2-.1-.9 0-1.3.4-1 .3.4.7 1.4.8 2.2zm-6.3 2.9c-.3.9-.8 1.4-1 1.1-.3-.3-.2-.9.2-1.5.9-1.6 1.5-1.3.8.4zm-17.6 7c0 .8-.4 1.2-.9.9-.5-.3-.6-1-.3-1.5.9-1.3 1.2-1.1 1.2.6zm-8.3 1.4c.3.5-.2 1.5-1.2 2.2-1.5 1.2-1.6 1.2-.5-.2.7-.9 1-1.9.6-2.2-.3-.4-.4-.7 0-.7.3 0 .8.4 1.1.9zm-8 3.9c.3.5-.1.9-.9.9s-1.2-.4-.9-.9c.3-.4.7-.8.9-.8.2 0 .6.4.9.8zm-129.7 1.5c1.8 1.9-2.8 2.7-12.2 2.3-11.7-.6-16.7-1.5-15.9-2.8.8-1.2 26.9-.7 28.1.5zm114.1 2.9c-.2.7.3 1.2 1 1 .8-.1 1.1.2.7.8-.5.8-1.1.8-2.1-.1-.7-.6-1.1-1.5-.8-2 .8-1.3 1.4-1.1 1.2.3zm-28.2 8.4c.1.9 0 1.3-.4 1-.3-.4-.7-1.4-.8-2.2-.1-.9 0-1.3.4-1 .3.4.7 1.4.8 2.2zm-5.9-.1c0 .8-.4 1.2-.9.9-.5-.3-.6-1-.3-1.5.9-1.3 1.2-1.1 1.2.6zM635 1226c0 .5-.2 1-.4 1-.3 0-.8-.5-1.1-1-.3-.6-.1-1 .4-1 .6 0 1.1.4 1.1 1zm19.4 1.8c.3.5-.1.9-.9.9s-1.2-.4-.9-.9c.3-.4.7-.8.9-.8.2 0 .6.4.9.8zm7.2.4c.4.7.3.8-.5.4-.6-.4-2-.2-2.9.6-1.5 1.2-1.6 1.1-.3-.5 1.6-2 2.7-2.2 3.7-.5zm83.4-.8c0 .2-.7.7-1.6 1-.8.3-1.2.2-.9-.4.6-1 2.5-1.4 2.5-.6zm-71.9 2.3c1.3 1.6 1.2 1.7-.3.4-1-.7-1.8-1.5-1.8-1.7 0-.8.8-.3 2.1 1.3zm3.8-.4c.8 1 .7 1.4-.2 1.4-.8 0-1.4-.6-1.4-1.4 0-.7.1-1.3.2-1.3.2 0 .8.6 1.4 1.3zm48 0c.8 1 .7 1.4-.2 1.4-.8 0-1.4-.6-1.4-1.4 0-.7.1-1.3.2-1.3.2 0 .8.6 1.4 1.3zm-40.5.5c.3.5-.1.9-.9.9s-1.2-.4-.9-.9c.3-.4.7-.8.9-.8.2 0 .6.4.9.8zm37.2.4c.3.4-.1.5-1 .4-.8-.1-1.8-.5-2.2-.8-.3-.4.1-.5 1-.4.8.1 1.8.5 2.2.8z"/><path d="M542.1 1103.4c-1.5 1.8 2.1 4.5 12.3 9.4 3.9 1.8 9.1 4.8 11.6 6.6 2.6 1.8 6.4 3.9 8.6 4.6 2.1.7 6.4 2.7 9.4 4.6 9.1 5.4 35.8 14.5 47 16 2.8.4 5.3 1.1 5.6 1.5.6 1 4.5 1.2 6.8.3 1.5-.6 1.5-.8-.1-2-1-.7-2.8-1.4-4-1.4-1.2 0-5.2-1.1-9-2.4-3.7-1.4-9.9-3.2-13.8-4.1-7.9-1.8-31.7-10.2-32.5-11.5-.3-.4-3.6-2-7.4-3.6-3.8-1.5-8.8-4.2-11.2-6-2.4-1.8-6.5-4.4-9.1-5.8-2.6-1.3-6.3-3.6-8.2-5-4-3-4.5-3.1-6-1.2z"/></svg>